<svg id="Layer_1" data-name="Layer 1" xmlns="http://www.w3.org/2000/svg" viewBox="0 0 475 135"><defs><style>.cls-1{fill:#fff;}.cls-2{fill:#770606;stroke:#000;stroke-miterlimit:10;}</style></defs><title>Artboard 1</title><path class="cls-1" d="M49.14,53.38V98.7H34.45V39.1H50.67A35.48,35.48,0,0,1,65,41.8a27.54,27.54,0,0,1,10,7.12,30,30,0,0,1,5.68,9.75,31.59,31.59,0,0,1-.1,21.69,28.52,28.52,0,0,1-5.77,9.44,26.83,26.83,0,0,1-9.44,6.52A32.49,32.49,0,0,1,52.62,98.7V84.43a17.41,17.41,0,0,0,8.55-3A14.21,14.21,0,0,0,66,75.58a16.6,16.6,0,0,0,1.45-6.64A14.92,14.92,0,0,0,65,60.39a14.32,14.32,0,0,0-6.47-5.12A27.41,27.41,0,0,0,49.14,53.38Z"/><path class="cls-1" d="M97.49,38.11a8.2,8.2,0,0,1,6,2.22,7.1,7.1,0,0,1,2.26,5.25,8.24,8.24,0,0,1-2,5.5,7.79,7.79,0,0,1-5.9,2.51,7.58,7.58,0,0,1-3.86-1,8,8,0,0,1-2.86-2.82A7.33,7.33,0,0,1,90,46.08a.55.55,0,0,0,.12-.19.5.5,0,0,0,0-.15,8.25,8.25,0,0,1,2.17-5.16A6.91,6.91,0,0,1,97.49,38.11Zm7.35,19.3V98.7H91.39V57.41Z"/><path class="cls-1" d="M137.92,97.87a28.64,28.64,0,0,1-6.64.83,19.67,19.67,0,0,1-7.35-1.37,17.72,17.72,0,0,1-6.24-4.21,19.2,19.2,0,0,1-4.26-6.83,25.14,25.14,0,0,1-1.5-8.92,16.55,16.55,0,0,1,.09-2,20.9,20.9,0,0,1,2.24-8.16,19.52,19.52,0,0,1,4.76-6,20.91,20.91,0,0,1,6.43-3.67,23.2,23.2,0,0,1,7.21-1.33,22.5,22.5,0,0,1,7.88,1.41,19.35,19.35,0,0,1,11.34,11A23.85,23.85,0,0,1,153.6,78v17.6a25.15,25.15,0,0,1-2.42,11.25,17.28,17.28,0,0,1-7.43,7.61,25.82,25.82,0,0,1-12.43,2.72,51.54,51.54,0,0,1-6.48-.42,50.07,50.07,0,0,1-7.1-1.45V102.52a42.63,42.63,0,0,0,12.72,2.28q10.06,0,10.07-8.21V78.66q0-5.4-2.3-7.64a8.21,8.21,0,0,0-11.32,0,8,8,0,0,0-2.73,6.06,9.34,9.34,0,0,1,.16,1.08,7.32,7.32,0,0,0,.17,1q1.36,6.77,8.15,7.05a16.54,16.54,0,0,0,5.26-1.2Z"/><path class="cls-1" d="M168.38,38.11a8.2,8.2,0,0,1,6,2.22,7.14,7.14,0,0,1,2.26,5.25,8.29,8.29,0,0,1-2,5.5,7.79,7.79,0,0,1-5.9,2.51,7.58,7.58,0,0,1-3.86-1A8,8,0,0,1,162,49.73a7.33,7.33,0,0,1-1.12-3.65.76.76,0,0,0,.12-.19.41.41,0,0,0,0-.15,8.26,8.26,0,0,1,2.18-5.16A6.91,6.91,0,0,1,168.38,38.11Zm7.35,19.3V98.7H162.28V57.41Z"/><path class="cls-1" d="M197,47.11V57h9.71V69.44h-9.88V80.77q0,3.28,1.62,4.4a8.15,8.15,0,0,0,4.44,1.21c.94-.06,2.27-.09,4-.09V98.7h-9.17a13.22,13.22,0,0,1-6.47-1.76A14.71,14.71,0,0,1,186,92a12.72,12.72,0,0,1-2.06-7.1V47.11Z"/><path class="cls-1" d="M257.28,98.7H243.67V78.49a10.34,10.34,0,0,0-2.36-6.93c-1.58-1.85-4-2.78-7.25-2.78a11,11,0,0,0-3.85.79A8.45,8.45,0,0,0,224.82,78c0,3.35,1,5.74,2.92,7.16a10,10,0,0,0,6,2.14,24.91,24.91,0,0,0,3.54-.21,12.63,12.63,0,0,0,3.09-.91v11.2a9.91,9.91,0,0,1-3.63,1.75,18.83,18.83,0,0,1-5.12.66,19.27,19.27,0,0,1-10.42-2.93,20.54,20.54,0,0,1-7.38-7.92A22.88,22.88,0,0,1,211.13,78q.24-9.63,6.45-15.4a22.68,22.68,0,0,1,14.78-6.18,37.11,37.11,0,0,1,8.95,1.1,26.76,26.76,0,0,1,8,3.4,17.81,17.81,0,0,1,5.77,6,17,17,0,0,1,2.18,8.8Z"/><path class="cls-1" d="M279.4,98.7H265.79V39.1H279.4Z"/><path class="cls-1" d="M304,53.38V98.7H289.32V39.1h16.23a35.48,35.48,0,0,1,14.34,2.7,27.5,27.5,0,0,1,10,7.12,30.07,30.07,0,0,1,5.69,9.75,32.07,32.07,0,0,1,1.86,10.61,31.47,31.47,0,0,1-2,11.08,28.35,28.35,0,0,1-5.77,9.44,26.83,26.83,0,0,1-9.44,6.52A32.44,32.44,0,0,1,307.5,98.7V84.43a17.45,17.45,0,0,0,8.55-3,14.27,14.27,0,0,0,4.77-5.82,16.61,16.61,0,0,0,1.46-6.64,14.92,14.92,0,0,0-2.43-8.55,14.29,14.29,0,0,0-6.48-5.12A27.32,27.32,0,0,0,304,53.38Z"/><path class="cls-1" d="M389.51,98.7H375.9V78.49a10.34,10.34,0,0,0-2.36-6.93c-1.58-1.85-4-2.78-7.25-2.78a11,11,0,0,0-3.85.79A8.45,8.45,0,0,0,357.05,78c0,3.35,1,5.74,2.92,7.16a10,10,0,0,0,6,2.14,24.91,24.91,0,0,0,3.54-.21,12.63,12.63,0,0,0,3.09-.91v11.2A9.91,9.91,0,0,1,369,99.08a18.83,18.83,0,0,1-5.12.66,19.27,19.27,0,0,1-10.42-2.93A20.54,20.54,0,0,1,346,88.89,22.88,22.88,0,0,1,343.36,78q.25-9.63,6.45-15.4a22.68,22.68,0,0,1,14.78-6.18,37.11,37.11,0,0,1,9,1.1,26.76,26.76,0,0,1,8,3.4,17.81,17.81,0,0,1,5.77,6,17,17,0,0,1,2.18,8.8Z"/><path class="cls-1" d="M409.56,57.24V82.47A4.18,4.18,0,0,0,411,85.73a5.92,5.92,0,0,0,3.4,1.52,5.42,5.42,0,0,0,3.39-1.52A5.07,5.07,0,0,0,419.1,82V57.24h13.08v28A12.31,12.31,0,0,1,430.25,92a16.11,16.11,0,0,1-4.63,4.83,9.43,9.43,0,0,1-4.4,1.89v17.77H407.61V98.7a12.89,12.89,0,0,1-7.89-4.81,15.29,15.29,0,0,1-3.24-10V57.24Z"/><path class="cls-1" d="M454.13,57.41V98.7H440.52V57.41Z"/><path class="cls-2" d="M285.26,39.77l4.57,12.33a43.21,43.21,0,0,0,7.29-2.33,52.07,52.07,0,0,0,8.74-4.86,77.46,77.46,0,0,0,6.5-4.77l-7.87-11.06Z"/><ellipse class="cls-2" cx="294.12" cy="33.33" rx="11.39" ry="4.82" transform="translate(20.88 147.15) rotate(-29.08)"/><path d="M293,33a21.17,21.17,0,0,0-4,2c-2.57,1.59-4,2.45-5,4-1.74,2.6-1.44,5.62-1,10a23.41,23.41,0,0,0,1,5c-2.95-8.45-1.84-13,0-15.54C286.4,35.08,293,33,293,33Z"/></svg>